# xmcd
#
# Track frame offsets:
#	150
#	14378
#	39211
#	58673
#	75111
#	98441
#	117067
#	133764
#	148409
#	164305
#	179806
#	198871
#	217999
#	236287
#	252726
#
# Disc length: 3546 seconds
#
# Revision: 0
# Processed by: cddbd v1.5.2PL0 Copyright (c) Steve Scherf et al.
# Submitted via: audiograbber 1.83.01
#
DISCID=c60dd80f
DTITLE=Various Artist - CB60224
DYEAR=1900
DGENRE=Karaoke
TTITLE0=Alan Jackson - Alright To Be A Redneck
TTITLE1=Dolly Parton - Shine
TTITLE2=Lonestar - With Me
TTITLE3=Valerie De La Cruz - That's Why I Like Your Love
TTITLE4=Montgomery Gentry - Cold One Comin' On
TTITLE5=Leann Rimes - Soon
TTITLE6=Dwight Yoakam - I Was There
TTITLE7=Rhonda Vincent - My Sweet Love Ain't Around
TTITLE8=Jameson Clark - Don't Play Any Love Songs
TTITLE9=Alison Krauss - Lucky One
TTITLE10=Tracy Byrd - Just Let Me Be In Love
TTITLE11=Bering Strait - Edge Of A Broken heart
TTITLE12=Tim McGraw - Telluride
TTITLE13=Martina McBride - Do What You Do
TTITLE14=Kacey Jones - Every Man Is Either Married, Gay, Or Dead
EXTD=
EXTT0=
EXTT1=
EXTT2=
EXTT3=
EXTT4=
EXTT5=
EXTT6=
EXTT7=
EXTT8=
EXTT9=
EXTT10=
EXTT11=
EXTT12=
EXTT13=
EXTT14=
PLAYORDER=
